<svg width="468" height="100" viewBox="0 0 468 100" fill="none" xmlns="http://www.w3.org/2000/svg">
<path d="M0 0H468L386 100H0V0Z" fill="white"/>
<g filter="url(#filter0_d_1362_7576)">
<path d="M222.028 77.211C222.781 76.5606 223.372 76.0278 223.803 75.6125C224.242 75.1894 224.606 74.7506 224.896 74.2962C225.186 73.8417 225.331 73.3873 225.331 72.9328C225.331 72.4627 225.218 72.0944 224.99 71.828C224.771 71.5616 224.422 71.4284 223.944 71.4284C223.482 71.4284 223.122 71.5773 222.863 71.875C222.612 72.165 222.479 72.5567 222.463 73.0504H221.171C221.194 72.1571 221.46 71.4754 221.97 71.0053C222.487 70.5273 223.141 70.2884 223.932 70.2884C224.787 70.2884 225.453 70.5234 225.931 70.9936C226.416 71.4637 226.659 72.0905 226.659 72.8741C226.659 73.4382 226.514 73.9828 226.224 74.5077C225.942 75.0249 225.601 75.4911 225.202 75.9064C224.81 76.3138 224.309 76.7879 223.697 77.3285L223.169 77.7986H226.894V78.9152H221.182V77.9397L222.028 77.211ZM228.071 74.637C228.071 73.2815 228.299 72.2237 228.753 71.4637C229.215 70.6958 230.007 70.3119 231.127 70.3119C232.248 70.3119 233.035 70.6958 233.49 71.4637C233.952 72.2237 234.183 73.2815 234.183 74.637C234.183 76.0082 233.952 77.0817 233.49 77.8574C233.035 78.6253 232.248 79.0092 231.127 79.0092C230.007 79.0092 229.215 78.6253 228.753 77.8574C228.299 77.0817 228.071 76.0082 228.071 74.637ZM232.867 74.637C232.867 74.0024 232.824 73.4656 232.737 73.0269C232.659 72.5881 232.494 72.2316 232.244 71.9573C231.993 71.6752 231.621 71.5342 231.127 71.5342C230.634 71.5342 230.261 71.6752 230.011 71.9573C229.76 72.2316 229.591 72.5881 229.505 73.0269C229.427 73.4656 229.388 74.0024 229.388 74.637C229.388 75.2952 229.427 75.8476 229.505 76.2942C229.584 76.7408 229.748 77.1013 229.999 77.3755C230.257 77.6498 230.634 77.7869 231.127 77.7869C231.621 77.7869 231.993 77.6498 232.244 77.3755C232.502 77.1013 232.671 76.7408 232.749 76.2942C232.827 75.8476 232.867 75.2952 232.867 74.637ZM236.341 77.211C237.093 76.5606 237.685 76.0278 238.116 75.6125C238.555 75.1894 238.919 74.7506 239.209 74.2962C239.499 73.8417 239.644 73.3873 239.644 72.9328C239.644 72.4627 239.53 72.0944 239.303 71.828C239.084 71.5616 238.735 71.4284 238.257 71.4284C237.795 71.4284 237.434 71.5773 237.176 71.875C236.925 72.165 236.792 72.5567 236.776 73.0504H235.483C235.507 72.1571 235.773 71.4754 236.282 71.0053C236.8 70.5273 237.454 70.2884 238.245 70.2884C239.099 70.2884 239.765 70.5234 240.243 70.9936C240.729 71.4637 240.972 72.0905 240.972 72.8741C240.972 73.4382 240.827 73.9828 240.537 74.5077C240.255 75.0249 239.914 75.4911 239.515 75.9064C239.123 76.3138 238.621 76.7879 238.01 77.3285L237.481 77.7986H241.207V78.9152H235.495V77.9397L236.341 77.211ZM242.219 77.2462V76.2355L246.169 70.5704H247.79V76.0827H248.884V77.2462H247.79V79.0327H246.474V77.2462H242.219ZM246.533 71.9338L243.759 76.0827H246.533V71.9338ZM254.563 73.5205C254.79 73.2071 255.1 72.9524 255.491 72.7565C255.891 72.5528 256.334 72.4509 256.82 72.4509C257.392 72.4509 257.909 72.5881 258.371 72.8623C258.833 73.1365 259.198 73.5283 259.464 74.0376C259.73 74.5391 259.864 75.115 259.864 75.7653C259.864 76.4157 259.73 76.9994 259.464 77.5166C259.198 78.0259 258.829 78.4255 258.359 78.7154C257.897 78.9975 257.384 79.1385 256.82 79.1385C256.318 79.1385 255.871 79.0406 255.48 78.8447C255.096 78.6488 254.79 78.398 254.563 78.0925V79.0327H253.223V70.3354H254.563V73.5205ZM258.5 75.7653C258.5 75.3187 258.406 74.9348 258.218 74.6135C258.038 74.2844 257.795 74.0376 257.49 73.8731C257.192 73.7007 256.871 73.6145 256.526 73.6145C256.189 73.6145 255.868 73.7007 255.562 73.8731C255.264 74.0455 255.021 74.2962 254.833 74.6253C254.653 74.9544 254.563 75.3422 254.563 75.7888C254.563 76.2355 254.653 76.6272 254.833 76.9642C255.021 77.2932 255.264 77.544 255.562 77.7164C255.868 77.8887 256.189 77.9749 256.526 77.9749C256.871 77.9749 257.192 77.8887 257.49 77.7164C257.795 77.5361 258.038 77.2776 258.218 76.9407C258.406 76.6037 258.5 76.212 258.5 75.7653ZM267.018 72.5567L263.046 82.0768H261.659L262.975 78.9269L260.425 72.5567H261.917L263.739 77.4931L265.631 72.5567H267.018ZM275.584 79.0327L272.422 75.3775V79.0327H271.082V70.8643H272.422V74.59L275.596 70.8643H277.276L273.727 74.9544L277.335 79.0327H275.584ZM281.211 79.115C280.663 79.115 280.169 79.021 279.731 78.8329C279.292 78.637 278.947 78.3628 278.696 78.0102C278.446 77.6576 278.32 77.2462 278.32 76.7761H279.754C279.785 77.1287 279.922 77.4186 280.165 77.6458C280.416 77.8731 280.765 77.9867 281.211 77.9867C281.674 77.9867 282.034 77.877 282.293 77.6576C282.551 77.4304 282.681 77.1405 282.681 76.7879C282.681 76.5136 282.598 76.2903 282.434 76.1179C282.277 75.9456 282.077 75.8123 281.834 75.7183C281.599 75.6243 281.27 75.5224 280.847 75.4127C280.314 75.2717 279.879 75.1307 279.542 74.9896C279.213 74.8408 278.931 74.6135 278.696 74.3079C278.461 74.0024 278.344 73.5949 278.344 73.0856C278.344 72.6155 278.461 72.2041 278.696 71.8515C278.931 71.4989 279.26 71.2286 279.684 71.0406C280.107 70.8525 280.596 70.7585 281.153 70.7585C281.944 70.7585 282.59 70.9583 283.092 71.3579C283.601 71.7497 283.883 72.2903 283.938 72.9798H282.457C282.434 72.6821 282.293 72.4274 282.034 72.2159C281.776 72.0043 281.435 71.8985 281.012 71.8985C280.628 71.8985 280.314 71.9965 280.071 72.1924C279.828 72.3883 279.707 72.6703 279.707 73.0386C279.707 73.2893 279.781 73.497 279.93 73.6615C280.087 73.8182 280.283 73.9436 280.518 74.0376C280.753 74.1316 281.074 74.2335 281.482 74.3432C282.022 74.4921 282.461 74.641 282.798 74.7898C283.143 74.9387 283.433 75.1698 283.668 75.4833C283.911 75.7888 284.032 76.2002 284.032 76.7173C284.032 77.1326 283.919 77.5244 283.691 77.8927C283.472 78.2609 283.147 78.5587 282.716 78.7859C282.293 79.0053 281.791 79.115 281.211 79.115ZM286.953 71.9456V74.3432H289.774V75.4362H286.953V77.9397H290.126V79.0327H285.613V70.8525H290.126V71.9456H286.953ZM297.489 73.2972C297.489 73.7125 297.391 74.1042 297.195 74.4725C296.999 74.8408 296.686 75.1424 296.255 75.3775C295.824 75.6047 295.271 75.7183 294.597 75.7183H293.117V79.0327H291.777V70.8643H294.597C295.224 70.8643 295.753 70.974 296.184 71.1934C296.623 71.4049 296.948 71.6948 297.16 72.0631C297.379 72.4314 297.489 72.8427 297.489 73.2972ZM294.597 74.6253C295.107 74.6253 295.487 74.5117 295.738 74.2844C295.988 74.0494 296.114 73.7203 296.114 73.2972C296.114 72.4039 295.608 71.9573 294.597 71.9573H293.117V74.6253H294.597ZM303.16 70.8643V79.0327H301.82V70.8643H303.16ZM310.196 70.8643V71.9573H308.021V79.0327H306.682V71.9573H304.496V70.8643H310.196ZM315.925 74.8368C316.364 74.9152 316.736 75.1463 317.041 75.5303C317.347 75.9142 317.5 76.3491 317.5 76.8349C317.5 77.2502 317.39 77.6263 317.171 77.9632C316.959 78.2923 316.65 78.5548 316.242 78.7506C315.835 78.9387 315.361 79.0327 314.82 79.0327H311.553V70.8643H314.667C315.224 70.8643 315.702 70.9583 316.101 71.1463C316.501 71.3344 316.802 71.589 317.006 71.9103C317.21 72.2237 317.312 72.5763 317.312 72.9681C317.312 73.4382 317.186 73.83 316.936 74.1434C316.685 74.4568 316.348 74.688 315.925 74.8368ZM312.893 74.2962H314.55C314.989 74.2962 315.329 74.1982 315.572 74.0024C315.823 73.7986 315.948 73.5087 315.948 73.1326C315.948 72.7644 315.823 72.4784 315.572 72.2746C315.329 72.0631 314.989 71.9573 314.55 71.9573H312.893V74.2962ZM314.703 77.9397C315.157 77.9397 315.514 77.83 315.772 77.6106C316.031 77.3912 316.16 77.0856 316.16 76.6938C316.16 76.2942 316.023 75.9769 315.749 75.7418C315.474 75.5068 315.11 75.3892 314.656 75.3892H312.893V77.9397H314.703Z" fill="url(#paint0_linear_1362_7576)"/>
<path d="M315.03 26.6084L318.719 22.4723L315.03 18.392L312.068 18.3921L315.757 22.4724L312.068 26.6085L315.03 26.6084Z" fill="url(#paint1_linear_1362_7576)"/>
<path d="M307.652 18.4477L311.341 22.528L307.652 26.6641L310.615 26.6642L314.304 22.5281L310.615 18.4478L307.652 18.4477Z" fill="url(#paint2_linear_1362_7576)"/>
<path d="M280.767 26.6086V18.4481H306.199L309.888 22.5283L306.199 26.6644H302.063V60.4243H291.89V26.6086H280.767Z" fill="url(#paint3_linear_1362_7576)"/>
<path d="M118 29.469V26.1362L128.232 18.9719V22.3047L118 29.469Z" fill="url(#paint4_linear_1362_7576)"/>
<path d="M128.232 23.8821L118 31.0464V34.3793L128.232 27.215V23.8821Z" fill="url(#paint5_linear_1362_7576)"/>
<path d="M128.232 28.7924L118 35.9567V60.602H128.232V28.7924Z" fill="url(#paint6_linear_1362_7576)"/>
<path d="M162.991 60.602H173.222V18.5983H162.991V44.6262L145.878 18.5983H135.646V60.602H145.878V34.6938L162.991 60.602Z" fill="url(#paint7_linear_1362_7576)"/>
<path d="M207.983 26.7956V18.5983H180.639V60.602H190.871V43.6091H203.675V35.6511H190.871V26.7956H207.983Z" fill="url(#paint8_linear_1362_7576)"/>
<path d="M223.593 35.2921V26.7956H239.09V18.5983H213.361V60.602H239.09V52.4047H223.593V43.1902H237.295V35.2921H223.593Z" fill="url(#paint9_linear_1362_7576)"/>
<path d="M252.673 59.525C255.106 60.5222 257.859 61.0208 260.93 61.0208C264.081 61.0208 266.814 60.4424 269.127 59.2856C271.441 58.1288 273.196 56.5732 274.393 54.6186C275.629 52.664 276.248 50.49 276.248 48.0966C276.248 45.5836 275.629 43.5293 274.393 41.9337C273.156 40.3381 271.68 39.1215 269.965 38.2838C268.29 37.4461 266.096 36.5686 263.383 35.6511C260.671 34.7735 258.676 33.9558 257.4 33.1979C256.123 32.44 255.485 31.3829 255.485 30.0267C255.485 28.7901 255.864 27.8527 256.622 27.2145C257.38 26.5364 258.377 26.1973 259.614 26.1973C261.05 26.1973 262.226 26.5962 263.144 27.394C264.061 28.1519 264.56 29.2089 264.64 30.5652H275.709C275.51 26.6161 273.994 23.5446 271.162 21.3507C268.33 19.1169 264.6 18 259.973 18C255.425 18 251.735 19.1169 248.903 21.3507C246.071 23.5446 244.655 26.5962 244.655 30.5054C244.655 33.1381 245.273 35.2722 246.51 36.9076C247.747 38.5431 249.222 39.7797 250.938 40.6173C252.653 41.455 254.867 42.2927 257.579 43.1304C259.454 43.6888 260.89 44.1875 261.887 44.6262C262.924 45.065 263.782 45.6235 264.46 46.3016C265.178 46.9797 265.537 47.8373 265.537 48.8745C265.537 50.111 265.098 51.0883 264.221 51.8064C263.343 52.4845 262.147 52.8235 260.631 52.8235C259.155 52.8235 257.958 52.4246 257.041 51.6269C256.123 50.7892 255.585 49.5925 255.425 48.0368H244.535C244.615 50.7892 245.373 53.1427 246.809 55.0972C248.285 57.0518 250.24 58.5277 252.673 59.525Z" fill="url(#paint10_linear_1362_7576)"/>
</g>
<defs>
<filter id="filter0_d_1362_7576" x="117" y="17" width="205.101" height="68.0767" filterUnits="userSpaceOnUse" color-interpolation-filters="sRGB">
<feFlood flood-opacity="0" result="BackgroundImageFix"/>
<feColorMatrix in="SourceAlpha" type="matrix" values="0 0 0 0 0 0 0 0 0 0 0 0 0 0 0 0 0 0 127 0" result="hardAlpha"/>
<feOffset dx="1" dy="1"/>
<feGaussianBlur stdDeviation="1"/>
<feComposite in2="hardAlpha" operator="out"/>
<feColorMatrix type="matrix" values="0 0 0 0 0 0 0 0 0 0 0 0 0 0 0 0 0 0 0.3 0"/>
<feBlend mode="normal" in2="BackgroundImageFix" result="effect1_dropShadow_1362_7576"/>
<feBlend mode="normal" in="SourceGraphic" in2="effect1_dropShadow_1362_7576" result="shape"/>
</filter>
<linearGradient id="paint0_linear_1362_7576" x1="343.392" y1="54.9938" x2="191.757" y2="94.2216" gradientUnits="userSpaceOnUse">
<stop stop-color="#37207A"/>
<stop offset="1" stop-color="#377BD9"/>
</linearGradient>
<linearGradient id="paint1_linear_1362_7576" x1="118" y1="61.0715" x2="273.843" y2="22.9765" gradientUnits="userSpaceOnUse">
<stop stop-color="#361F79"/>
<stop offset="0.38" stop-color="#384092"/>
<stop offset="1" stop-color="#447DCC"/>
</linearGradient>
<linearGradient id="paint2_linear_1362_7576" x1="118" y1="61.0715" x2="273.843" y2="22.9765" gradientUnits="userSpaceOnUse">
<stop stop-color="#361F79"/>
<stop offset="0.38" stop-color="#384092"/>
<stop offset="1" stop-color="#447DCC"/>
</linearGradient>
<linearGradient id="paint3_linear_1362_7576" x1="118" y1="61.0715" x2="273.843" y2="22.9765" gradientUnits="userSpaceOnUse">
<stop stop-color="#361F79"/>
<stop offset="0.38" stop-color="#384092"/>
<stop offset="1" stop-color="#447DCC"/>
</linearGradient>
<linearGradient id="paint4_linear_1362_7576" x1="118" y1="61.0715" x2="273.843" y2="22.9765" gradientUnits="userSpaceOnUse">
<stop stop-color="#361F79"/>
<stop offset="0.38" stop-color="#384092"/>
<stop offset="1" stop-color="#447DCC"/>
</linearGradient>
<linearGradient id="paint5_linear_1362_7576" x1="118" y1="61.0715" x2="273.843" y2="22.9765" gradientUnits="userSpaceOnUse">
<stop stop-color="#361F79"/>
<stop offset="0.38" stop-color="#384092"/>
<stop offset="1" stop-color="#447DCC"/>
</linearGradient>
<linearGradient id="paint6_linear_1362_7576" x1="118" y1="61.0715" x2="273.843" y2="22.9765" gradientUnits="userSpaceOnUse">
<stop stop-color="#361F79"/>
<stop offset="0.38" stop-color="#384092"/>
<stop offset="1" stop-color="#447DCC"/>
</linearGradient>
<linearGradient id="paint7_linear_1362_7576" x1="118" y1="61.0715" x2="273.843" y2="22.9765" gradientUnits="userSpaceOnUse">
<stop stop-color="#361F79"/>
<stop offset="0.38" stop-color="#384092"/>
<stop offset="1" stop-color="#447DCC"/>
</linearGradient>
<linearGradient id="paint8_linear_1362_7576" x1="118" y1="61.0715" x2="273.843" y2="22.9765" gradientUnits="userSpaceOnUse">
<stop stop-color="#361F79"/>
<stop offset="0.38" stop-color="#384092"/>
<stop offset="1" stop-color="#447DCC"/>
</linearGradient>
<linearGradient id="paint9_linear_1362_7576" x1="118" y1="61.0715" x2="273.843" y2="22.9765" gradientUnits="userSpaceOnUse">
<stop stop-color="#361F79"/>
<stop offset="0.38" stop-color="#384092"/>
<stop offset="1" stop-color="#447DCC"/>
</linearGradient>
<linearGradient id="paint10_linear_1362_7576" x1="118" y1="61.0715" x2="273.843" y2="22.9765" gradientUnits="userSpaceOnUse">
<stop stop-color="#361F79"/>
<stop offset="0.38" stop-color="#384092"/>
<stop offset="1" stop-color="#447DCC"/>
</linearGradient>
</defs>
</svg>
